<?xml version="1.0" encoding="UTF-8"?>
<svg id="a" data-name="Layer 1" xmlns="http://www.w3.org/2000/svg" viewBox="0 0 1080 1080">
  <defs>
    <style>
      .b {
        fill: #091310;
      }

      .c {
        fill: #20ab8a;
      }
    </style>
  </defs>
  <g>
    <polygon class="c" points="147.044 710.164 92.664 710.164 92.664 804.332 516.466 1050.039 516.466 987.23 147.044 772.973 147.044 710.164"/>
    <polygon class="c" points="950.146 772.973 580.725 987.23 580.725 1050.039 1004.526 804.332 1004.526 710.164 950.146 710.164 950.146 772.973"/>
    <polygon class="c" points="92.664 369.836 147.044 369.836 147.044 307.027 516.466 92.77 516.466 29.961 92.664 275.759 92.664 369.836"/>
    <polygon class="c" points="580.725 29.961 580.725 92.77 950.146 307.027 950.146 369.836 1004.526 369.836 1004.526 275.759 580.725 29.961"/>
  </g>
  <g>
    <path class="b" d="M88.621,440.239l-68.484,207.314h32.544l17.844-59.392h72.088l17.573,59.392h33.929l-68.484-207.314h-37.01ZM135.107,562.793h-56.96l8.457-28.148c6.749-22.46,13.16-45.607,19.395-69.075h1.267c5.977,23.468,12.763,46.615,19.513,69.075l8.329,28.148Z"/>
    <polygon class="b" points="230.395 467.03 297.317 467.03 297.317 647.553 329.111 647.553 329.111 467.03 396.033 467.03 396.033 440.239 230.395 440.239 230.395 467.03"/>
    <polygon class="b" points="506.172 440.239 474.637 440.239 474.637 647.553 605.962 647.553 605.962 620.762 506.172 620.762 506.172 440.239"/>
    <path class="b" d="M739.493,440.239l-68.484,207.314h32.544l17.844-59.392h72.088l17.573,59.392h33.929l-68.484-207.314h-37.01ZM785.979,562.793h-56.96l8.457-28.148c6.749-22.46,13.16-45.607,19.395-69.075h1.267c5.977,23.468,12.763,46.615,19.513,69.075l8.329,28.148Z"/>
    <path class="b" d="M1014.434,535.336l-28.12-12.389c-18.26-7.083-36.152-13.655-36.152-31.649,0-16.964,14.668-27.059,36.481-27.059,21.172,0,36.232,6.867,50.081,18.483l16.411-20.286c-16.081-15.846-39.465-25.997-65.129-25.997-40.931,0-70.013,24.431-70.013,56.738,0,30.531,23.232,45.86,44.4,54.209l29.247,12.823c20.539,8.687,35.68,14.309,35.68,34.577,0,16.689-14.571,28.765-40.816,28.765-22.54,0-43.475-9.776-59.245-24.578l-18.665,21.907c19.505,18.913,46.431,30.471,76.171,30.471,47.004,0,75.098-27.162,75.098-60.44,0-30.293-19.433-45.445-45.429-55.576Z"/>
  </g>
</svg>