<?xml version="1.0" encoding="UTF-8"?>
<svg id="a" data-name="Layer 1" xmlns="http://www.w3.org/2000/svg" viewBox="0 0 1080 1080">
  <defs>
    <style>
      .b {
        fill: #e7e8e5;
      }

      .c {
        fill: #091310;
      }

      .d {
        fill: #20ab8a;
      }
    </style>
  </defs>
  <polygon class="c" points="103.706 286.976 103.706 793.023 540.004 1046.051 976.294 793.024 976.294 286.977 540.005 33.949 103.706 286.976"/>
  <g>
    <polygon class="d" points="513.212 844.404 513.212 887.54 226.881 721.537 226.881 656.865 264.225 656.865 264.225 700.001 513.212 844.404"/>
    <polygon class="d" points="853.119 656.865 853.119 721.537 566.797 887.531 566.797 844.395 815.775 700.001 815.775 656.865 853.119 656.865"/>
    <polygon class="d" points="513.212 192.46 513.212 235.596 264.225 379.999 264.225 423.135 226.881 423.135 226.881 358.529 513.212 192.46"/>
    <polygon class="d" points="853.119 358.529 853.119 423.135 815.775 423.135 815.775 379.999 566.797 235.605 566.797 192.469 853.119 358.529"/>
  </g>
  <g>
    <path class="b" d="M226.379,471.244l-48.047,142.621h18.697l13.594-43.265h51.751l13.358,43.265h19.566l-48.047-142.621h-20.871ZM257.809,555.817h-42.541l6.763-21.524c5-15.871,9.566-31.524,14.131-48.047h.87c4.348,16.523,9.131,32.176,14.131,48.047l6.645,21.524Z"/>
    <polygon class="b" points="322.04 486.68 369.218 486.68 369.218 613.865 387.48 613.865 387.48 486.68 434.658 486.68 434.658 471.244 322.04 471.244 322.04 486.68"/>
    <polygon class="b" points="508.797 471.244 490.752 471.244 490.752 613.865 579.237 613.865 579.237 598.429 508.797 598.429 508.797 471.244"/>
    <path class="b" d="M673.378,471.244l-48.048,142.621h18.698l13.594-43.265h51.751l13.357,43.265h19.567l-48.047-142.621h-20.871ZM704.808,555.817h-42.541l6.763-21.524c5-15.871,9.566-31.524,14.132-48.047h.869c4.348,16.523,9.132,32.176,14.132,48.047l6.645,21.524Z"/>
    <path class="b" d="M858.83,537.771l-20.002-8.914c-12.174-4.783-25.437-9.783-25.437-23.48,0-12.827,11.088-20.654,27.612-20.654,14.784,0,25.654,5,35.002,13.262l9.566-11.74c-10.436-10.436-26.09-17.611-43.917-17.611-27.176,0-46.743,16.089-46.743,37.829,0,21.089,16.523,31.09,30.655,36.742l20.654,9.132c14.349,6.088,25.437,10.436,25.437,25.654,0,13.045-11.305,22.393-30.872,22.393-16.089,0-30.872-6.957-41.743-17.61l-10.87,12.609c12.827,12.827,30.872,21.089,51.744,21.089,31.307,0,50.439-18.045,50.439-40.655,0-21.089-13.914-31.09-31.524-38.047Z"/>
  </g>
</svg>